<svg width="148" height="133" viewBox="0 0 148 133" fill="none" xmlns="http://www.w3.org/2000/svg">
<path d="M8.7683 75.7329L9.28394 74.9223L40.3778 26.2798C40.8323 25.5677 41.9006 25.6413 42.2444 26.4149C47.439 38.0566 51.9213 52.5352 49.8215 61.549C48.925 65.2577 46.469 70.2803 43.7057 74.9223C43.3498 75.5978 42.9568 76.261 42.5391 76.8995C42.3426 77.1942 42.0111 77.3661 41.6549 77.3661H9.67695C8.81731 77.3661 8.31386 76.4329 8.7683 75.7329Z" fill="white"/>
<path d="M147.364 84.7713V92.4711C147.364 92.9131 147.094 93.3061 146.701 93.478C144.294 94.5095 136.054 98.2918 132.628 103.057C123.884 115.226 117.204 132.628 102.271 132.628H39.9724C17.8926 132.628 0 114.674 0 92.5201V91.8079C0 91.2184 0.478826 90.7396 1.06834 90.7396H35.7973C36.4848 90.7396 36.9883 91.3781 36.9271 92.0534C36.6813 94.313 37.099 96.6218 38.1673 98.7216C40.2304 102.909 44.5039 105.525 49.1213 105.525H66.3139V92.1027H49.3178C48.446 92.1027 47.9303 91.0956 48.4338 90.3834C48.6178 90.1008 48.8268 89.8063 49.0477 89.4748C50.6565 87.1906 52.9529 83.6416 55.237 79.6013C56.7966 76.8751 58.307 73.9646 59.5228 71.0419C59.7686 70.5139 59.9648 69.9734 60.1613 69.4453C60.4929 68.512 60.8369 67.6402 61.0824 66.7683C61.3282 66.0313 61.5244 65.2577 61.7209 64.5332C62.2982 62.0525 62.5438 59.4246 62.5438 56.6984C62.5438 55.63 62.4947 54.5125 62.3965 53.4441C62.3473 52.2775 62.2 51.1107 62.0525 49.9441C61.9543 48.9126 61.7702 47.8933 61.5737 46.8249C61.3282 45.2653 60.9842 43.7182 60.5912 42.1583L60.4561 41.5691C60.1613 40.5005 59.9158 39.4814 59.5721 38.413C58.6017 35.0603 57.4844 31.7939 56.3054 28.7361C55.8755 27.5203 55.3843 26.3537 54.893 25.1871C54.1687 23.431 53.4317 21.8346 52.7564 20.324C52.4126 19.6362 52.1178 19.0099 51.8231 18.3714C51.4915 17.6468 51.1478 16.9222 50.8038 16.2347C50.5582 15.7066 50.2757 15.2154 50.0792 14.7241L47.9793 10.8435C47.6846 10.3155 48.1758 9.68914 48.7529 9.84883L61.8931 13.41H61.9299C61.9542 13.41 61.9667 13.4225 61.9789 13.4225L63.7104 13.9013L65.6139 14.4418L66.3139 14.6381V6.82789C66.3139 3.05775 69.3348 0 73.0682 0C74.9347 0 76.6294 0.761389 77.8452 2.00161C79.0608 3.24206 79.8222 4.93673 79.8222 6.82789V18.4206L81.2223 18.8134C81.3328 18.8505 81.4432 18.8995 81.5415 18.9731C81.8855 19.231 82.3765 19.6116 83.0028 20.0785C83.4941 20.4712 84.0221 20.9503 84.6607 21.4416C85.9255 22.4607 87.4361 23.7747 89.0939 25.2853C89.5359 25.6659 89.9658 26.0589 90.3588 26.4519C92.4957 28.4413 94.8903 30.7745 97.1745 33.3535C97.813 34.078 98.4393 34.8148 99.0778 35.5884C99.7163 36.3744 100.392 37.148 100.981 37.9218C101.755 38.9533 102.59 40.0217 103.315 41.1392C103.658 41.6673 104.051 42.2076 104.383 42.7356C105.316 44.1477 106.139 45.6093 106.925 47.0707C107.257 47.746 107.6 48.4828 107.895 49.2073C108.767 51.1599 109.455 53.1494 109.897 55.1388C110.032 55.5686 110.13 56.0352 110.179 56.4529V56.5511C110.327 57.1404 110.376 57.7667 110.425 58.4052C110.621 60.4439 110.523 62.4823 110.081 64.5332C109.897 65.4052 109.651 66.2278 109.356 67.0999C109.062 67.9349 108.767 68.8068 108.386 69.6296C107.65 71.3364 106.778 73.0435 105.746 74.6399C105.414 75.2295 105.021 75.8558 104.628 76.4453C104.199 77.0714 103.757 77.6609 103.364 78.2382C102.823 78.975 102.246 79.7486 101.657 80.4363C101.129 81.1609 100.588 81.8855 99.9989 82.524C99.1761 83.4941 98.3901 84.4151 97.5672 85.2994C97.0762 85.8765 96.5482 86.466 96.0077 86.9941C95.4798 87.5834 94.9393 88.1114 94.4481 88.6027C93.6255 89.4255 92.9377 90.064 92.3604 90.5921L91.0097 91.8326C90.8132 92.0044 90.5553 92.1027 90.2851 92.1027H79.8222V105.525H92.9867C95.934 105.525 98.7341 104.481 100.994 102.565C101.767 101.89 105.144 98.9674 109.135 94.5587C109.27 94.4112 109.443 94.3008 109.639 94.2518L146.001 83.7398C146.677 83.5433 147.364 84.059 147.364 84.7713Z" fill="white"/>
</svg>
